<?xml version="1.0" encoding="UTF-8"?>
<svg id="Layer_1" data-name="Layer 1" xmlns="http://www.w3.org/2000/svg" viewBox="0 0 885.96 189.76">
  <defs>
    <style>
      .cls-1 {
        fill: #4f46e5;
      }

      .cls-2 {
        fill: #818cf8;
      }

      .cls-3 {
        fill: #0a0d14;
      }

      .cls-4 {
        fill: #3730a3;
      }
    </style>
  </defs>
  <g>
    <path class="cls-4" d="M36.59,181.07l43.58-60.02c2.51-3.45,3.86-7.61,3.86-11.88V20.22c0-11.17-9.05-20.22-20.22-20.22H20.22C9.05,0,0,9.05,0,20.22v148.96c0,19.59,25.08,27.74,36.59,11.88Z"/>
    <path class="cls-2" d="M118.3,0h56.9c12.03,0,17.78,14.8,8.9,22.92l-53.62,49.03c-11.58,10.59-30.23,2.37-30.23-13.32V18.05c0-9.97,8.08-18.05,18.05-18.05Z"/>
    <path class="cls-1" d="M100.27,109.24v64.31c0,8.96,7.26,16.22,16.22,16.22h25.19c4.81,0,8.7-3.9,8.7-8.7v-79.35c0-4.81-3.9-8.71-8.71-8.7h-25.19c-8.95.01-16.21,7.27-16.21,16.23Z"/>
    <path class="cls-1" d="M158.51,122.65v59.92c0,3.97,3.22,7.19,7.19,7.19h49.97c8.99,0,13.93-10.46,8.21-17.4l-46.52-56.47c-6.35-7.7-18.85-3.22-18.85,6.76Z"/>
  </g>
  <g>
    <path class="cls-3" d="M787.17,135.57h-16.05V54.16h16.05v81.41Z"/>
    <path class="cls-3" d="M444.72,111.61,395.45,78.23c-.01.55-.03,3.96,2.68,6.46.68.63,1.4,1.07,2.07,1.39,1.14.53,2.38.77,3.64.77h30.98c1.47,0,2.95.08,4.41.26,1.86.23,3.27.57,5.31,1.33,1.79.67,3.72,1.62,5.66,2.96,6.25,4.35,8.7,10.22,9.48,12.38.72,2.31,1.08,4.92,1.08,7.83s-.37,5.54-1.11,7.86c-.74,2.33-1.71,4.38-2.92,6.16-1.21,1.78-2.63,3.29-4.26,4.54-1.63,1.25-3.31,2.27-5.05,3.07-1.74.79-3.51,1.38-5.31,1.76-1.8.38-3.49.57-5.08.57h-56.94v-16.05h56.94c.88.01,2.18-.11,3.51-.81,1.48-.78,2.43-1.98,3.05-3.17,1.29-2.48,1.29-5.44.12-7.98-.61-1.33-1.59-2.7-3.18-3.63-.75-.44-1.51-.7-2.19-.86-.2-.04-.39-.07-.58-.09-.78-.07-1.56-.1-2.34-.1h-31.46c-.46,0-1.21.03-1.67.02-3.25-.1-8.86,0-14.63-4.94-3.53-3.01-5.17-6.54-5.9-8.5-1.05-2.42-2.36-6.32-2.36-11.24,0-4.43.79-8.17,2.36-11.21,1.57-3.05,3.54-5.53,5.9-7.44,2.36-1.91,4.93-3.29,7.69-4.14,2.76-.85,5.34-1.28,7.72-1.28h50.24v16.05h-50.24c-1.15,0-3,.08-5.04,1.87-2.68,2.35-2.6,5.7-2.59,6.15ZM395.45,78.23"/>
    <path class="cls-3" d="M494.18,135.57h-16.05V54.16h16.05v81.41ZM563.35,135.57h-23.02s-34.18-32.68-34.18-32.68h-7.34v-16.05h7.34l34.18-32.68h23.02l-41.84,40.71,41.84,40.71Z"/>
    <path class="cls-3" d="M753.76,101.51c0,4.96-.86,9.52-2.58,13.68-1.72,4.16-4.1,7.75-7.12,10.76-3.03,3.01-6.62,5.36-10.79,7.07-4.16,1.7-8.69,2.55-13.57,2.55h-39.85c-1.06,0-2.04-.19-2.95-.57-.91-.38-1.69-.9-2.36-1.56-.66-.66-1.18-1.45-1.56-2.36-.38-.91-.57-1.89-.57-2.95V61.6c0-1.02.19-1.99.57-2.9.38-.91.9-1.7,1.56-2.38.66-.68,1.45-1.21,2.36-1.59.91-.38,1.89-.57,2.95-.57h39.85c4.88,0,9.4.85,13.57,2.55,4.16,1.7,7.76,4.06,10.79,7.07,3.03,3.01,5.4,6.61,7.12,10.79,1.72,4.18,2.58,8.73,2.58,13.65v13.28ZM737.71,99.71v-9.72c0-2.63-.42-5.24-1.3-7.71-1.19-3.29-3.44-7.2-7.71-9.71-3.52-2.07-7.01-2.36-9.01-2.35h-31.24v49.32h31.25c2,0,5.49-.3,9.01-2.37,3.85-2.26,6.06-5.66,7.32-8.71,1.15-2.77,1.69-5.75,1.69-8.74Z"/>
    <path class="cls-3" d="M314.11,70.21h47.92v-16.05h-47.45c-4.88,0-9.4.85-13.57,2.55-4.16,1.7-7.76,4.06-10.79,7.07-3.03,3.01-5.4,6.6-7.13,10.79-1.72,4.18-2.58,8.73-2.58,13.66v13.28c0,4.96.86,9.52,2.58,13.68,1.72,4.16,4.1,7.75,7.13,10.76,3.03,3.01,6.62,5.37,10.79,7.07,4.17,1.7,8.69,2.55,13.57,2.55h47.45s0-16.04,0-16.04h-47.92c-.99,0-8.64,0-13.05-5-4.5-4.72-4.52-10.48-4.5-11.64h65.47v-16.04h-65.47c.1-1.56.6-6.5,4.5-10.82,5.05-5.59,11.87-5.8,13.05-5.82Z"/>
    <path class="cls-3" d="M885.96,135.57h-16.05v-18.7h-49.32v18.7h-16.05s0-40.71,0-40.71c0-5.94,1.02-11.41,3.07-16.41s4.88-9.29,8.52-12.89c3.63-3.6,7.93-6.4,12.89-8.4,4.96-2.01,10.37-3.01,16.24-3.01h33.27c1.02,0,1.99.19,2.9.57.91.38,1.7.91,2.38,1.59s1.21,1.48,1.59,2.38c.38.91.57,1.87.57,2.9v73.97ZM820.59,100.83h49.32v-30.62h-21.29c-4.88,0-9.7,1.21-13.91,3.67-1.42.83-2.87,1.84-4.27,3.07-10.17,8.91-9.85,21.79-9.85,23.88Z"/>
    <path class="cls-3" d="M654.73,135.57h-16.05v-18.7h-49.32v18.7h-16.05s0-40.71,0-40.71c0-5.94,1.02-11.41,3.07-16.41s4.88-9.29,8.52-12.89c3.63-3.6,7.93-6.4,12.89-8.4,4.96-2.01,10.37-3.01,16.24-3.01h33.27c1.02,0,1.99.19,2.9.57.91.38,1.7.91,2.38,1.59s1.21,1.48,1.59,2.38c.38.91.57,1.87.57,2.9v73.97ZM589.36,100.83h49.32v-30.62h-21.29c-4.88,0-9.7,1.21-13.91,3.67-1.42.83-2.87,1.84-4.27,3.07-10.17,8.91-9.85,21.79-9.85,23.88Z"/>
  </g>
</svg>