<?xml version="1.0" encoding="UTF-8"?>
<svg id="Layer_1" data-name="Layer 1" xmlns="http://www.w3.org/2000/svg" viewBox="0 0 512 512">
  <defs>
    <style>
      .cls-1 {
        fill: #4f46e5;
      }

      .cls-2 {
        fill: #818cf8;
      }

      .cls-3 {
        fill: #3730a3;
      }
    </style>
  </defs>
  <path class="cls-3" d="M121.51,34.84L9.88,188.58C3.46,197.43,0,208.08,0,219.02v227.81c0,28.61,23.19,51.8,51.8,51.8h111.63c28.61,0,51.8-23.19,51.8-51.8V65.27c0-50.19-64.23-71.05-93.72-30.44Z"/>
  <path class="cls-2" d="M308.97,13.37h164.48c34.79,0,51.39,42.77,25.72,66.25l-154.99,141.73c-33.48,30.62-87.38,6.86-87.38-38.5v-117.3c0-28.82,23.36-52.18,52.18-52.18Z"/>
  <path class="cls-1" d="M309.04,498.38h164.71c34.83,0,51.47-42.83,25.76-66.34l-155.21-141.93c-33.53-30.66-87.51-6.87-87.51,38.56v117.46c0,28.86,23.39,52.25,52.25,52.25Z"/>
</svg>