<?xml version="1.0" encoding="UTF-8"?>
<svg id="Layer_1" data-name="Layer 1" xmlns="http://www.w3.org/2000/svg" viewBox="0 0 1920 1080">
  <defs>
    <style>
      .cls-1 {
        letter-spacing: -.02em;
      }

      .cls-2 {
        fill: #4f46e5;
      }

      .cls-3 {
        fill: #818cf8;
      }

      .cls-4 {
        letter-spacing: 0em;
      }

      .cls-5 {
        letter-spacing: 0em;
      }

      .cls-6 {
        fill: #0a0d14;
      }

      .cls-7 {
        letter-spacing: -.04em;
      }

      .cls-8 {
        fill: #3730a3;
      }

      .cls-9 {
        letter-spacing: -.04em;
      }

      .cls-10 {
        fill: none;
        stroke: #fff;
        stroke-miterlimit: 10;
        stroke-width: 1.39px;
      }

      .cls-11 {
        font-family: Jura-Medium, Jura;
        font-size: 26.2px;
        font-weight: 500;
      }

      .cls-11, .cls-12 {
        fill: #e5e7eb;
      }

      .cls-13 {
        letter-spacing: -.02em;
      }
    </style>
  </defs>
  <rect class="cls-6" y="0" width="1920" height="1080"/>
  <g>
    <g>
      <g>
        <g>
          <text class="cls-11" transform="translate(98.77 711.1)"><tspan class="cls-13" x="0" y="0">A</tspan><tspan class="cls-4" x="16.02" y="0">u</tspan><tspan class="cls-9" x="32.46" y="0">t</tspan><tspan x="41.32" y="0">o</tspan><tspan class="cls-1" x="57.38" y="0">m</tspan><tspan class="cls-4" x="79.95" y="0">ati</tspan><tspan class="cls-13" x="112.72" y="0">z</tspan><tspan x="125.97" y="0">ación</tspan></text>
          <line class="cls-10" x1="330.1" y1="686.91" x2="330.1" y2="782.74"/>
        </g>
        <g>
          <g>
            <path class="cls-8" d="M377.08,757.08l21.81-3.46c1.26-.2,2.42-.79,3.31-1.69l18.72-18.72c2.35-2.35,2.35-6.16,0-8.52l-9.17-9.17c-2.35-2.35-6.16-2.35-8.52,0l-31.36,31.36c-4.13,4.13-.56,11.12,5.2,10.2Z"/>
            <path class="cls-3" d="M432.4,736.17l11.98,11.98c2.53,2.53.63,6.86-2.95,6.7l-21.61-.97c-4.67-.21-6.86-5.86-3.56-9.17l8.54-8.54c2.1-2.1,5.5-2.1,7.6,0Z"/>
          </g>
          <g>
            <path class="cls-12" d="M643.87,749.58h-5.82v-29.52h5.82v29.52Z"/>
            <path class="cls-12" d="M519.7,740.89,501.83,728.79c0,.2-.01,1.44.97,2.34.25.23.51.39.75.5.41.19.86.28,1.32.28h11.23c.53,0,1.07.03,1.6.09.67.08,1.19.21,1.93.48.65.24,1.35.59,2.05,1.07,2.27,1.58,3.15,3.7,3.44,4.49.26.84.39,1.78.39,2.84s-.13,2.01-.4,2.85-.62,1.59-1.06,2.23c-.44.65-.95,1.19-1.54,1.65-.59.45-1.2.82-1.83,1.11-.63.29-1.27.5-1.92.64-.65.14-1.27.21-1.84.21h-20.65v-5.82h20.65c.32,0,.79-.04,1.27-.3.54-.28.88-.72,1.11-1.15.47-.9.47-1.97.04-2.9-.22-.48-.58-.98-1.15-1.32-.27-.16-.55-.26-.79-.31-.07-.02-.14-.03-.21-.03-.28-.03-.56-.04-.85-.04h-11.41c-.17,0-.44.01-.61,0-1.18-.03-3.21,0-5.31-1.79-1.28-1.09-1.87-2.37-2.14-3.08-.38-.88-.85-2.29-.85-4.08,0-1.61.28-2.96.85-4.07.57-1.1,1.28-2,2.14-2.7.86-.69,1.79-1.19,2.79-1.5,1-.31,1.94-.46,2.8-.46h18.22v5.82h-18.22c-.42,0-1.09.03-1.83.68-.97.85-.94,2.07-.94,2.23ZM501.83,728.79"/>
            <path class="cls-12" d="M537.63,749.58h-5.82v-29.52h5.82v29.52ZM562.71,749.58h-8.35s-12.4-11.85-12.4-11.85h-2.66v-5.82h2.66l12.4-11.85h8.35l-15.17,14.76,15.17,14.76Z"/>
            <path class="cls-12" d="M631.76,737.23c0,1.8-.31,3.45-.94,4.96-.62,1.51-1.49,2.81-2.58,3.9-1.1,1.09-2.4,1.95-3.91,2.56-1.51.62-3.15.93-4.92.93h-14.45c-.38,0-.74-.07-1.07-.21-.33-.14-.61-.33-.85-.57-.24-.24-.43-.52-.57-.85-.14-.33-.21-.69-.21-1.07v-24.13c0-.37.07-.72.21-1.05.14-.33.33-.62.57-.86.24-.25.52-.44.85-.58.33-.14.69-.21,1.07-.21h14.45c1.77,0,3.41.31,4.92.93,1.51.62,2.81,1.47,3.91,2.56,1.1,1.09,1.96,2.39,2.58,3.91.62,1.52.94,3.17.94,4.95v4.82ZM625.94,736.57v-3.53c0-.95-.15-1.9-.47-2.8-.43-1.19-1.25-2.61-2.8-3.52-1.28-.75-2.54-.86-3.27-.85h-11.33v17.88h11.33c.73,0,1.99-.11,3.27-.86,1.4-.82,2.2-2.05,2.66-3.16.42-1,.61-2.08.61-3.17Z"/>
            <path class="cls-12" d="M477.54,725.88h12.18v-5.82h-12.01c-1.77,0-3.41.31-4.92.93-1.51.62-2.81,1.47-3.91,2.56-1.1,1.09-1.96,2.39-2.58,3.91-.62,1.52-.94,3.17-.94,4.95v4.82c0,1.8.31,3.45.94,4.96.63,1.51,1.49,2.81,2.58,3.9,1.1,1.09,2.4,1.95,3.91,2.56,1.51.62,3.15.93,4.92.93h12.01s0-5.82,0-5.82h-12.18c-.36,0-3.13,0-4.73-1.81-1.63-1.71-1.64-3.8-1.63-4.22h18.54v-5.82h-18.54c.03-.57.22-2.36,1.63-3.92,1.83-2.03,4.31-2.1,4.73-2.11Z"/>
            <path class="cls-12" d="M679.69,749.58h-5.82v-6.78h-17.88v6.78h-5.82s0-14.76,0-14.76c0-2.15.37-4.14,1.11-5.95s1.77-3.37,3.09-4.67c1.32-1.3,2.87-2.32,4.67-3.05,1.8-.73,3.76-1.09,5.89-1.09h12.06c.37,0,.72.07,1.05.21.33.14.62.33.86.58s.44.54.58.86c.14.33.21.68.21,1.05v26.82ZM655.99,736.98h17.88v-11.1h-7.72c-1.77,0-3.52.44-5.04,1.33-.52.3-1.04.67-1.55,1.11-3.69,3.23-3.57,7.9-3.57,8.66Z"/>
            <path class="cls-12" d="M595.85,749.58h-5.82v-6.78h-17.88v6.78h-5.82s0-14.76,0-14.76c0-2.15.37-4.14,1.11-5.95s1.77-3.37,3.09-4.67c1.32-1.3,2.87-2.32,4.67-3.05,1.8-.73,3.76-1.09,5.89-1.09h12.06c.37,0,.72.07,1.05.21.33.14.62.33.86.58s.44.54.58.86c.14.33.21.68.21,1.05v26.82ZM572.15,736.98h17.88v-11.1h-7.72c-1.77,0-3.52.44-5.04,1.33-.52.3-1.04.67-1.55,1.11-3.69,3.23-3.57,7.9-3.57,8.66Z"/>
          </g>
        </g>
      </g>
      <g>
        <text class="cls-11" transform="translate(1300.5 713.05)"><tspan class="cls-7" x="0" y="0">C</tspan><tspan x="16.65" y="0">onsu</tspan><tspan class="cls-5" x="80.67" y="0">l</tspan><tspan class="cls-9" x="88.49" y="0">t</tspan><tspan x="97.36" y="0">oría</tspan></text>
        <line class="cls-10" x1="1487.08" y1="686.91" x2="1487.08" y2="782.74"/>
        <g>
          <g>
            <path class="cls-12" d="M1785.25,749.67h-5.84v-29.65h5.84v29.65Z"/>
            <path class="cls-12" d="M1660.5,740.94,1642.56,728.78c0,.2-.01,1.44.98,2.35.25.23.51.39.76.5.41.19.87.28,1.32.28h11.29c.54,0,1.07.03,1.61.09.68.08,1.19.21,1.93.49.65.24,1.36.59,2.06,1.08,2.28,1.59,3.17,3.72,3.45,4.51.26.84.39,1.79.39,2.85s-.13,2.02-.4,2.86-.62,1.6-1.07,2.24c-.44.65-.96,1.2-1.55,1.65-.59.45-1.21.83-1.84,1.12-.63.29-1.28.5-1.93.64-.65.14-1.27.21-1.85.21h-20.74v-5.84h20.74c.32,0,.79-.04,1.28-.3.54-.28.89-.72,1.11-1.15.47-.9.47-1.98.04-2.91-.22-.48-.58-.98-1.16-1.32-.27-.16-.55-.26-.8-.31-.07-.02-.14-.03-.21-.03-.28-.03-.57-.04-.85-.04h-11.46c-.17,0-.44.01-.61,0-1.18-.03-3.23,0-5.33-1.8-1.28-1.1-1.88-2.38-2.15-3.1-.38-.88-.86-2.3-.86-4.09,0-1.61.29-2.97.86-4.08.57-1.11,1.29-2.01,2.15-2.71.86-.7,1.8-1.2,2.8-1.51,1.01-.31,1.94-.47,2.81-.47h18.3v5.84h-18.3c-.42,0-1.09.03-1.84.68-.98.86-.95,2.08-.94,2.24ZM1642.56,728.78"/>
            <path class="cls-12" d="M1678.52,749.67h-5.84v-29.65h5.84v29.65ZM1703.72,749.67h-8.38s-12.45-11.9-12.45-11.9h-2.67v-5.84h2.67l12.45-11.9h8.38l-15.24,14.83,15.24,14.83Z"/>
            <path class="cls-12" d="M1773.07,737.26c0,1.81-.31,3.47-.94,4.98-.63,1.52-1.49,2.82-2.6,3.92-1.1,1.1-2.41,1.95-3.93,2.57-1.52.62-3.16.93-4.94.93h-14.52c-.39,0-.74-.07-1.08-.21-.33-.14-.62-.33-.86-.57-.24-.24-.43-.53-.57-.86-.14-.33-.21-.69-.21-1.08v-24.24c0-.37.07-.72.21-1.05.14-.33.33-.62.57-.87.24-.25.53-.44.86-.58.33-.14.69-.21,1.08-.21h14.52c1.78,0,3.43.31,4.94.93,1.52.62,2.83,1.48,3.93,2.57,1.1,1.1,1.97,2.41,2.6,3.93.63,1.52.94,3.18.94,4.97v4.84ZM1767.23,736.6v-3.54c0-.96-.15-1.91-.48-2.81-.43-1.2-1.25-2.62-2.81-3.54-1.28-.75-2.55-.86-3.28-.86h-11.38v17.97h11.38c.73,0,2-.11,3.28-.86,1.4-.82,2.21-2.06,2.67-3.17.42-1.01.62-2.09.62-3.18Z"/>
            <path class="cls-12" d="M1618.15,725.86h12.24v-5.84h-12.07c-1.78,0-3.43.31-4.94.93-1.52.62-2.83,1.48-3.93,2.57-1.1,1.1-1.97,2.41-2.6,3.93-.63,1.52-.94,3.18-.94,4.97v4.84c0,1.81.31,3.47.94,4.98.63,1.52,1.49,2.82,2.6,3.92,1.1,1.1,2.41,1.95,3.93,2.57,1.52.62,3.16.93,4.94.93h12.07s0-5.84,0-5.84h-12.24c-.36,0-3.15,0-4.75-1.82-1.64-1.72-1.65-3.82-1.64-4.24h18.63v-5.84h-18.63c.04-.57.22-2.37,1.64-3.94,1.84-2.04,4.33-2.11,4.75-2.12Z"/>
            <path class="cls-12" d="M1821.23,749.67h-5.84v-6.81h-17.97v6.81h-5.84s0-14.83,0-14.83c0-2.16.37-4.16,1.12-5.98s1.78-3.38,3.1-4.69c1.32-1.31,2.89-2.33,4.69-3.06,1.81-.73,3.78-1.1,5.91-1.1h12.12c.37,0,.72.07,1.05.21.33.14.62.33.87.58s.44.54.58.87c.14.33.21.68.21,1.05v26.95ZM1797.42,737.01h17.97v-11.15h-7.75c-1.78,0-3.53.44-5.07,1.34-.52.3-1.04.67-1.56,1.12-3.7,3.24-3.59,7.94-3.59,8.7Z"/>
            <path class="cls-12" d="M1737,749.67h-5.84v-6.81h-17.97v6.81h-5.84s0-14.83,0-14.83c0-2.16.37-4.16,1.12-5.98s1.78-3.38,3.1-4.69c1.32-1.31,2.89-2.33,4.69-3.06,1.81-.73,3.78-1.1,5.91-1.1h12.12c.37,0,.72.07,1.05.21.33.14.62.33.87.58s.44.54.58.87c.14.33.21.68.21,1.05v26.95ZM1713.19,737.01h17.97v-11.15h-7.75c-1.78,0-3.53.44-5.07,1.34-.52.3-1.04.67-1.56,1.12-3.7,3.24-3.59,7.94-3.59,8.7Z"/>
          </g>
          <g>
            <path class="cls-8" d="M1576.52,712.46l-11.35,15.64c-.65.9-1.01,1.98-1.01,3.1v23.17c0,2.91,2.36,5.27,5.27,5.27h11.35c2.91,0,5.27-2.36,5.27-5.27v-38.81c0-5.11-6.53-7.23-9.53-3.1Z"/>
            <path class="cls-2" d="M1559.93,731.18v-16.76c0-2.33-1.89-4.23-4.23-4.23h-6.56c-1.25,0-2.27,1.02-2.27,2.27v20.67c0,1.25,1.02,2.27,2.27,2.27h6.56c2.33,0,4.22-1.9,4.22-4.23Z"/>
            <path class="cls-2" d="M1544.75,727.68v-15.61c0-1.03-.84-1.87-1.87-1.87h-13.02c-2.34,0-3.63,2.73-2.14,4.53l12.12,14.71c1.65,2.01,4.91.84,4.91-1.76Z"/>
          </g>
        </g>
      </g>
      <g>
        <line class="cls-10" x1="874.21" y1="686.91" x2="874.21" y2="782.74"/>
        <text class="cls-11" transform="translate(779.69 715.2)"><tspan x="0" y="0">CRM</tspan></text>
        <g>
          <g>
            <path class="cls-12" d="M1164.66,749.56h-5.82v-29.54h5.82v29.54Z"/>
            <path class="cls-12" d="M1040.38,740.86,1022.51,728.75c0,.2-.01,1.44.97,2.34.25.23.51.39.75.5.41.19.87.28,1.32.28h11.24c.53,0,1.07.03,1.6.09.67.08,1.19.21,1.93.48.65.24,1.35.59,2.05,1.07,2.27,1.58,3.16,3.71,3.44,4.49.26.84.39,1.79.39,2.84s-.13,2.01-.4,2.85-.62,1.59-1.06,2.24c-.44.65-.95,1.19-1.55,1.65-.59.45-1.2.82-1.83,1.11-.63.29-1.27.5-1.93.64-.65.14-1.27.21-1.84.21h-20.66v-5.82h20.66c.32,0,.79-.04,1.27-.3.54-.28.88-.72,1.11-1.15.47-.9.47-1.98.04-2.9-.22-.48-.58-.98-1.15-1.32-.27-.16-.55-.26-.79-.31-.07-.02-.14-.03-.21-.03-.28-.03-.56-.04-.85-.04h-11.41c-.17,0-.44.01-.61,0-1.18-.03-3.21,0-5.31-1.79-1.28-1.09-1.88-2.37-2.14-3.08-.38-.88-.85-2.3-.85-4.08,0-1.61.28-2.96.85-4.07.57-1.11,1.28-2.01,2.14-2.7.86-.69,1.79-1.19,2.79-1.5,1-.31,1.94-.46,2.8-.46h18.23v5.82h-18.23c-.42,0-1.09.03-1.83.68-.97.85-.94,2.07-.94,2.23ZM1022.51,728.75"/>
            <path class="cls-12" d="M1058.33,749.56h-5.82v-29.54h5.82v29.54ZM1083.43,749.56h-8.35s-12.41-11.86-12.41-11.86h-2.66v-5.82h2.66l12.41-11.86h8.35l-15.18,14.77,15.18,14.77Z"/>
            <path class="cls-12" d="M1152.53,737.2c0,1.8-.31,3.45-.94,4.96-.63,1.51-1.49,2.81-2.59,3.9-1.1,1.09-2.4,1.95-3.91,2.56-1.51.62-3.15.93-4.92.93h-14.46c-.38,0-.74-.07-1.07-.21-.33-.14-.61-.33-.85-.57-.24-.24-.43-.53-.57-.85-.14-.33-.21-.69-.21-1.07v-24.14c0-.37.07-.72.21-1.05.14-.33.33-.62.57-.87.24-.25.53-.44.85-.58.33-.14.69-.21,1.07-.21h14.46c1.77,0,3.41.31,4.92.93,1.51.62,2.82,1.47,3.91,2.56,1.1,1.09,1.96,2.4,2.59,3.91.62,1.52.94,3.17.94,4.95v4.82ZM1146.71,736.54v-3.53c0-.95-.15-1.9-.47-2.8-.43-1.2-1.25-2.61-2.8-3.52-1.28-.75-2.54-.86-3.27-.85h-11.34v17.9h11.34c.73,0,1.99-.11,3.27-.86,1.4-.82,2.2-2.05,2.66-3.16.42-1,.61-2.09.61-3.17Z"/>
            <path class="cls-12" d="M998.19,725.84h12.19v-5.82h-12.02c-1.77,0-3.41.31-4.92.93-1.51.62-2.81,1.47-3.91,2.56-1.1,1.09-1.96,2.4-2.59,3.91-.62,1.52-.94,3.17-.94,4.96v4.82c0,1.8.31,3.45.94,4.97.63,1.51,1.49,2.81,2.59,3.9,1.1,1.09,2.4,1.95,3.91,2.56,1.51.62,3.15.93,4.92.93h12.02s0-5.82,0-5.82h-12.19c-.36,0-3.14,0-4.73-1.81-1.63-1.71-1.64-3.8-1.63-4.22h18.56v-5.82h-18.56c.03-.57.22-2.36,1.63-3.93,1.83-2.03,4.31-2.11,4.73-2.11Z"/>
            <path class="cls-12" d="M1200.5,749.56h-5.82v-6.79h-17.9v6.79h-5.82s0-14.77,0-14.77c0-2.16.37-4.14,1.11-5.95s1.77-3.37,3.09-4.68c1.32-1.3,2.88-2.32,4.68-3.05,1.8-.73,3.76-1.09,5.89-1.09h12.07c.37,0,.72.07,1.05.21.33.14.62.33.87.58s.44.54.58.87c.14.33.21.68.21,1.05v26.84ZM1176.78,736.95h17.9v-11.11h-7.72c-1.77,0-3.52.44-5.05,1.33-.52.3-1.04.67-1.55,1.12-3.69,3.23-3.57,7.91-3.57,8.67Z"/>
            <path class="cls-12" d="M1116.59,749.56h-5.82v-6.79h-17.9v6.79h-5.82s0-14.77,0-14.77c0-2.16.37-4.14,1.11-5.95s1.77-3.37,3.09-4.68c1.32-1.3,2.88-2.32,4.68-3.05,1.8-.73,3.76-1.09,5.89-1.09h12.07c.37,0,.72.07,1.05.21.33.14.62.33.87.58s.44.54.58.87c.14.33.21.68.21,1.05v26.84ZM1092.87,736.95h17.9v-11.11h-7.72c-1.77,0-3.52.44-5.05,1.33-.52.3-1.04.67-1.55,1.12-3.69,3.23-3.57,7.91-3.57,8.67Z"/>
          </g>
          <g>
            <path class="cls-8" d="M926.53,712.41l-11.32,15.59c-.65.9-1,1.98-1,3.09v23.11c0,2.9,2.35,5.25,5.25,5.25h11.32c2.9,0,5.25-2.35,5.25-5.25v-38.7c0-5.09-6.51-7.21-9.51-3.09Z"/>
            <path class="cls-3" d="M945.54,710.23h16.68c3.53,0,5.21,4.34,2.61,6.72l-15.72,14.38c-3.4,3.11-8.86.7-8.86-3.91v-11.9c0-2.92,2.37-5.29,5.29-5.29Z"/>
            <path class="cls-2" d="M945.55,759.42h16.71c3.53,0,5.22-4.34,2.61-6.73l-15.74-14.4c-3.4-3.11-8.88-.7-8.88,3.91v11.91c0,2.93,2.37,5.3,5.3,5.3Z"/>
          </g>
        </g>
      </g>
    </g>
    <g>
      <g>
        <path class="cls-8" d="M262.78,547.67l126.05-20c7.25-1.15,13.96-4.57,19.15-9.76l108.21-108.21c13.59-13.59,13.59-35.62,0-49.21l-53.02-53.02c-13.59-13.59-35.62-13.59-49.21,0l-181.24,181.24c-23.84,23.84-3.24,64.26,30.06,58.98Z"/>
        <path class="cls-3" d="M582.5,426.79l69.23,69.23c14.64,14.64,3.63,39.64-17.06,38.71l-124.9-5.58c-26.98-1.21-39.67-33.89-20.57-52.99l49.37-49.37c12.13-12.13,31.79-12.13,43.92,0Z"/>
      </g>
      <g>
        <path class="cls-8" d="M929.61,309.85l-65.39,90.05c-3.76,5.18-5.79,11.42-5.79,17.83v133.44c0,16.76,13.59,30.34,30.34,30.34h65.39c16.76,0,30.34-13.59,30.34-30.34v-223.49c0-29.4-37.62-41.62-54.9-17.83Z"/>
        <path class="cls-3" d="M1039.41,297.27h96.34c20.38,0,30.1,25.05,15.07,38.8l-90.79,83.02c-19.61,17.93-51.18,4.02-51.18-22.55v-68.71c0-16.88,13.68-30.56,30.56-30.56Z"/>
        <path class="cls-2" d="M1039.45,581.36h96.48c20.4,0,30.15-25.09,15.09-38.86l-90.91-83.13c-19.64-17.96-51.26-4.03-51.26,22.58v68.8c0,16.9,13.7,30.6,30.6,30.6Z"/>
      </g>
      <g>
        <path class="cls-8" d="M1642.75,315.49l-65.33,89.97c-3.76,5.18-5.78,11.41-5.78,17.81v133.32c0,16.74,13.57,30.32,30.32,30.32h65.33c16.74,0,30.32-13.57,30.32-30.32v-223.3c0-29.37-37.59-41.58-54.85-17.81Z"/>
        <path class="cls-2" d="M1547.29,423.17v-96.4c0-13.43-10.88-24.31-24.31-24.31h-37.76c-7.21,0-13.05,5.84-13.05,13.05v118.94c0,7.21,5.85,13.05,13.05,13.05l37.76-.02c13.42,0,24.3-10.89,24.3-24.31Z"/>
        <path class="cls-2" d="M1459.99,403.06v-89.83c0-5.95-4.82-10.77-10.77-10.77h-74.91c-13.48,0-20.88,15.68-12.31,26.09l69.73,84.66c9.51,11.55,28.26,4.82,28.26-10.14Z"/>
      </g>
    </g>
  </g>
</svg>