<?xml version="1.0" encoding="UTF-8"?>
<svg id="Layer_1" data-name="Layer 1" xmlns="http://www.w3.org/2000/svg" viewBox="0 0 512 512">
  <defs>
    <style>
      .cls-1 {
        fill: #4f46e5;
      }

      .cls-2 {
        fill: #3730a3;
      }
    </style>
  </defs>
  <path class="cls-2" d="M429.23,61.03l-98.59,135.78c-5.67,7.81-8.73,17.22-8.73,26.88v201.2c0,25.27,20.48,45.75,45.75,45.75h98.59c25.27,0,45.75-20.48,45.75-45.75V87.91c0-44.33-56.73-62.75-82.77-26.88Z"/>
  <path class="cls-1" d="M285.17,223.53V78.04c0-20.26-16.43-36.69-36.69-36.69h-56.98c-10.88,0-19.69,8.82-19.69,19.69v179.5c0,10.88,8.82,19.7,19.7,19.69l56.99-.02c20.26,0,36.67-16.43,36.67-36.69Z"/>
  <path class="cls-1" d="M153.41,193.18V57.62c0-8.98-7.28-16.26-16.26-16.26H24.11c-20.34,0-31.51,23.67-18.58,39.37l105.24,127.76c14.35,17.43,42.64,7.28,42.64-15.3Z"/>
</svg>