<?xml version="1.0" encoding="UTF-8"?>
<svg id="Layer_1" data-name="Layer 1" xmlns="http://www.w3.org/2000/svg" viewBox="0 0 512 512">
  <defs>
    <style>
      .cls-1 {
        fill: #818cf8;
      }

      .cls-2 {
        fill: #3730a3;
      }
    </style>
  </defs>
  <path class="cls-2" d="M47.41,402.74l148.01-23.49c8.52-1.35,16.39-5.36,22.49-11.46l127.06-127.06c15.96-15.96,15.96-41.83,0-57.79l-62.26-62.26c-15.96-15.96-41.83-15.96-57.79,0L12.11,333.49c-27.99,27.99-3.8,75.46,35.3,69.25Z"/>
  <path class="cls-1" d="M422.84,260.8l81.29,81.29c17.19,17.19,4.26,46.54-20.03,45.46l-146.66-6.55c-31.68-1.42-46.58-39.8-24.16-62.22l57.98-57.98c14.24-14.24,37.33-14.24,51.58,0Z"/>
</svg>