<?xml version="1.0" encoding="UTF-8"?>
<svg id="Layer_1" data-name="Layer 1" xmlns="http://www.w3.org/2000/svg" viewBox="0 0 512 512">
  <defs>
    <style>
      .cls-1 {
        fill: #4f46e5;
      }

      .cls-2 {
        fill: #818cf8;
      }

      .cls-3 {
        fill: #3730a3;
      }
    </style>
  </defs>
  <path class="cls-3" d="M82.77,450.97l98.59-135.78c5.67-7.81,8.73-17.22,8.73-26.88V87.11c0-25.27-20.48-45.75-45.75-45.75H45.75C20.48,41.35,0,61.84,0,87.11v336.98c0,44.33,56.73,62.75,82.77,26.88Z"/>
  <path class="cls-2" d="M267.63,41.35h128.73c27.22,0,40.22,33.47,20.13,51.85l-121.3,110.92c-26.2,23.96-68.39,5.37-68.39-30.13v-91.8c0-22.55,18.28-40.83,40.83-40.83Z"/>
  <path class="cls-1" d="M226.83,288.47v145.48c0,20.26,16.43,36.69,36.69,36.69h56.98c10.88,0,19.69-8.82,19.69-19.69v-179.5c0-10.88-8.82-19.7-19.7-19.69l-56.99.02c-20.26,0-36.67,16.43-36.67,36.69Z"/>
  <path class="cls-1" d="M358.59,318.82v135.56c0,8.98,7.28,16.26,16.26,16.26h113.04c20.34,0,31.51-23.67,18.58-39.37l-105.24-127.76c-14.35-17.43-42.64-7.28-42.64,15.3Z"/>
</svg>