<?xml version="1.0" encoding="UTF-8"?>
<svg id="Layer_1" data-name="Layer 1" xmlns="http://www.w3.org/2000/svg" viewBox="0 0 180 180">
  <defs>
    <style>
      .cls-1 {
        fill: #4f46e5;
      }

      .cls-2 {
        fill: #818cf8;
      }

      .cls-3 {
        fill: #3730a3;
      }
    </style>
  </defs>
  <path class="cls-3" d="M29.1,158.54l34.66-47.74c1.99-2.75,3.07-6.06,3.07-9.45V30.62c0-8.88-7.2-16.08-16.08-16.08H16.08C7.2,14.54,0,21.74,0,30.62v118.47c0,15.58,19.94,22.06,29.1,9.45Z"/>
  <path class="cls-2" d="M94.09,14.54h45.26c9.57,0,14.14,11.77,7.08,18.23l-42.65,39c-9.21,8.42-24.04,1.89-24.04-10.59V28.89c0-7.93,6.43-14.36,14.36-14.36Z"/>
  <path class="cls-1" d="M79.75,101.42v51.15c0,7.12,5.77,12.9,12.9,12.9h20.03c3.82,0,6.92-3.1,6.92-6.92v-63.11c0-3.82-3.1-6.92-6.93-6.92h-20.04c-7.12.01-12.89,5.79-12.89,12.91Z"/>
  <path class="cls-1" d="M126.07,112.08v47.66c0,3.16,2.56,5.72,5.72,5.72h39.74c7.15,0,11.08-8.32,6.53-13.84l-37-44.91c-5.05-6.13-14.99-2.56-14.99,5.38Z"/>
</svg>