<?xml version="1.0" encoding="UTF-8"?>
<svg id="Layer_1" data-name="Layer 1" xmlns="http://www.w3.org/2000/svg" viewBox="0 0 128 128">
  <defs>
    <style>
      .cls-1 {
        fill: #4f46e5;
      }

      .cls-2 {
        fill: #818cf8;
      }

      .cls-3 {
        fill: #3730a3;
      }
    </style>
  </defs>
  <path class="cls-3" d="M20.69,112.74l24.65-33.95c1.42-1.95,2.18-4.31,2.18-6.72V21.78c0-6.32-5.12-11.44-11.44-11.44H11.44C5.12,10.34,0,15.46,0,21.78v84.25c0,11.08,14.18,15.69,20.69,6.72Z"/>
  <path class="cls-2" d="M66.91,10.34h32.18c6.81,0,10.06,8.37,5.03,12.96l-30.33,27.73c-6.55,5.99-17.1,1.34-17.1-7.53v-22.95c0-5.64,4.57-10.21,10.21-10.21Z"/>
  <path class="cls-1" d="M56.71,72.12v36.37c0,5.07,4.11,9.17,9.17,9.17h14.25c2.72,0,4.92-2.2,4.92-4.92v-44.87c0-2.72-2.21-4.92-4.93-4.92h-14.25c-5.06,0-9.17,4.11-9.17,9.18Z"/>
  <path class="cls-1" d="M89.65,79.7v33.89c0,2.24,1.82,4.06,4.06,4.06h28.26c5.09,0,7.88-5.92,4.64-9.84l-26.31-31.94c-3.59-4.36-10.66-1.82-10.66,3.83Z"/>
</svg>