<?xml version="1.0" encoding="UTF-8"?>
<svg id="Layer_1" data-name="Layer 1" xmlns="http://www.w3.org/2000/svg" viewBox="0 0 96 96">
  <defs>
    <style>
      .cls-1 {
        fill: #4f46e5;
      }

      .cls-2 {
        fill: #818cf8;
      }

      .cls-3 {
        fill: #3730a3;
      }
    </style>
  </defs>
  <path class="cls-3" d="M15.52,84.56l18.49-25.46c1.06-1.47,1.64-3.23,1.64-5.04V16.33c0-4.74-3.84-8.58-8.58-8.58H8.58C3.84,7.75,0,11.59,0,16.33v63.18c0,8.31,10.64,11.77,15.52,5.04Z"/>
  <path class="cls-2" d="M50.18,7.75h24.14c5.1,0,7.54,6.28,3.77,9.72l-22.74,20.8c-4.91,4.49-12.82,1.01-12.82-5.65V15.41c0-4.23,3.43-7.66,7.66-7.66Z"/>
  <path class="cls-1" d="M42.53,54.09v27.28c0,3.8,3.08,6.88,6.88,6.88h10.68c2.04,0,3.69-1.65,3.69-3.69v-33.66c0-2.04-1.65-3.69-3.69-3.69h-10.69c-3.8,0-6.88,3.09-6.88,6.88Z"/>
  <path class="cls-1" d="M67.23,59.78v25.42c0,1.68,1.36,3.05,3.05,3.05h21.2c3.81,0,5.91-4.44,3.48-7.38l-19.73-23.95c-2.69-3.27-8-1.36-8,2.87Z"/>
</svg>