<?xml version="1.0" encoding="UTF-8"?>
<svg id="Layer_1" data-name="Layer 1" xmlns="http://www.w3.org/2000/svg" viewBox="0 0 16 16">
  <defs>
    <style>
      .cls-1 {
        fill: #4f46e5;
      }

      .cls-2 {
        fill: #818cf8;
      }

      .cls-3 {
        fill: #3730a3;
      }
    </style>
  </defs>
  <path class="cls-3" d="M2.59,14.09l3.08-4.24c.18-.24.27-.54.27-.84V2.72c0-.79-.64-1.43-1.43-1.43H1.43c-.79,0-1.43.64-1.43,1.43v10.53c0,1.39,1.77,1.96,2.59.84Z"/>
  <path class="cls-2" d="M8.36,1.29h4.02c.85,0,1.26,1.05.63,1.62l-3.79,3.47c-.82.75-2.14.17-2.14-.94v-2.87c0-.7.57-1.28,1.28-1.28Z"/>
  <path class="cls-1" d="M7.09,9.01v4.55c0,.63.51,1.15,1.15,1.15h1.78c.34,0,.62-.28.62-.62v-5.61c0-.34-.28-.62-.62-.62h-1.78c-.63,0-1.15.51-1.15,1.15Z"/>
  <path class="cls-1" d="M11.21,9.96v4.24c0,.28.23.51.51.51h3.53c.64,0,.98-.74.58-1.23l-3.29-3.99c-.45-.54-1.33-.23-1.33.48Z"/>
</svg>