<?xml version="1.0" encoding="UTF-8"?>
<svg id="Layer_1" data-name="Layer 1" xmlns="http://www.w3.org/2000/svg" viewBox="0 0 192 192">
  <defs>
    <style>
      .cls-1 {
        fill: #4f46e5;
      }

      .cls-2 {
        fill: #818cf8;
      }

      .cls-3 {
        fill: #3730a3;
      }
    </style>
  </defs>
  <path class="cls-3" d="M31.04,169.11l36.97-50.92c2.13-2.93,3.27-6.46,3.27-10.08V32.67c0-9.48-7.68-17.16-17.16-17.16H17.16C7.68,15.51,0,23.19,0,32.67v126.37c0,16.62,21.27,23.53,31.04,10.08Z"/>
  <path class="cls-2" d="M100.36,15.51h48.27c10.21,0,15.08,12.55,7.55,19.44l-45.49,41.6c-9.83,8.99-25.65,2.01-25.65-11.3V30.82c0-8.46,6.86-15.31,15.31-15.31Z"/>
  <path class="cls-1" d="M85.06,108.18v54.56c0,7.6,6.16,13.76,13.76,13.76h21.37c4.08,0,7.38-3.31,7.38-7.38v-67.31c0-4.08-3.31-7.39-7.39-7.38h-21.37c-7.6.01-13.75,6.17-13.75,13.77Z"/>
  <path class="cls-1" d="M134.47,119.56v50.84c0,3.37,2.73,6.1,6.1,6.1h42.39c7.63,0,11.82-8.88,6.97-14.76l-39.46-47.91c-5.38-6.54-15.99-2.73-15.99,5.74Z"/>
</svg>