<?xml version="1.0" encoding="UTF-8"?>
<svg id="Layer_1" data-name="Layer 1" xmlns="http://www.w3.org/2000/svg" viewBox="0 0 64 64">
  <defs>
    <style>
      .cls-1 {
        fill: #4f46e5;
      }

      .cls-2 {
        fill: #818cf8;
      }

      .cls-3 {
        fill: #3730a3;
      }
    </style>
  </defs>
  <path class="cls-3" d="M10.35,56.37l12.32-16.97c.71-.98,1.09-2.15,1.09-3.36V10.89c0-3.16-2.56-5.72-5.72-5.72H5.72C2.56,5.17,0,7.73,0,10.89v42.12c0,5.54,7.09,7.84,10.35,3.36Z"/>
  <path class="cls-2" d="M33.45,5.17h16.09c3.4,0,5.03,4.18,2.52,6.48l-15.16,13.87c-3.28,3-8.55.67-8.55-3.77v-11.48c0-2.82,2.29-5.1,5.1-5.1Z"/>
  <path class="cls-1" d="M28.35,36.06v18.19c0,2.53,2.05,4.59,4.59,4.59h7.12c1.36,0,2.46-1.1,2.46-2.46v-22.44c0-1.36-1.1-2.46-2.46-2.46h-7.12c-2.53,0-4.58,2.06-4.58,4.59Z"/>
  <path class="cls-1" d="M44.82,39.85v16.95c0,1.12.91,2.03,2.03,2.03h14.13c2.54,0,3.94-2.96,2.32-4.92l-13.15-15.97c-1.79-2.18-5.33-.91-5.33,1.91Z"/>
</svg>