<?xml version="1.0" encoding="UTF-8"?>
<svg id="Layer_1" data-name="Layer 1" xmlns="http://www.w3.org/2000/svg" viewBox="0 0 48 48">
  <defs>
    <style>
      .cls-1 {
        fill: #4f46e5;
      }

      .cls-2 {
        fill: #818cf8;
      }

      .cls-3 {
        fill: #3730a3;
      }
    </style>
  </defs>
  <path class="cls-3" d="M7.76,42.28l9.24-12.73c.53-.73.82-1.61.82-2.52V8.17c0-2.37-1.92-4.29-4.29-4.29H4.29C1.92,3.88,0,5.8,0,8.17v31.59c0,4.16,5.32,5.88,7.76,2.52Z"/>
  <path class="cls-2" d="M25.09,3.88h12.07c2.55,0,3.77,3.14,1.89,4.86l-11.37,10.4c-2.46,2.25-6.41.5-6.41-2.83V7.71c0-2.11,1.71-3.83,3.83-3.83Z"/>
  <path class="cls-1" d="M21.27,27.04v13.64c0,1.9,1.54,3.44,3.44,3.44h5.34c1.02,0,1.85-.83,1.85-1.85v-16.83c0-1.02-.83-1.85-1.85-1.85h-5.34c-1.9,0-3.44,1.54-3.44,3.44Z"/>
  <path class="cls-1" d="M33.62,29.89v12.71c0,.84.68,1.52,1.52,1.52h10.6c1.91,0,2.95-2.22,1.74-3.69l-9.87-11.98c-1.35-1.63-4-.68-4,1.43Z"/>
</svg>