<?xml version="1.0" encoding="UTF-8"?>
<svg id="Layer_1" data-name="Layer 1" xmlns="http://www.w3.org/2000/svg" viewBox="0 0 32 32">
  <defs>
    <style>
      .cls-1 {
        fill: #4f46e5;
      }

      .cls-2 {
        fill: #818cf8;
      }

      .cls-3 {
        fill: #3730a3;
      }
    </style>
  </defs>
  <path class="cls-3" d="M5.17,28.19l6.16-8.49c.35-.49.55-1.08.55-1.68V5.44c0-1.58-1.28-2.86-2.86-2.86H2.86C1.28,2.58,0,3.86,0,5.44v21.06C0,29.28,3.55,30.43,5.17,28.19Z"/>
  <path class="cls-2" d="M16.73,2.58h8.05c1.7,0,2.51,2.09,1.26,3.24l-7.58,6.93c-1.64,1.5-4.27.34-4.27-1.88v-5.74c0-1.41,1.14-2.55,2.55-2.55Z"/>
  <path class="cls-1" d="M14.18,18.03v9.09c0,1.27,1.03,2.29,2.29,2.29h3.56c.68,0,1.23-.55,1.23-1.23v-11.22c0-.68-.55-1.23-1.23-1.23h-3.56c-1.27,0-2.29,1.03-2.29,2.29Z"/>
  <path class="cls-1" d="M22.41,19.93v8.47c0,.56.45,1.02,1.02,1.02h7.07c1.27,0,1.97-1.48,1.16-2.46l-6.58-7.98c-.9-1.09-2.67-.45-2.67.96Z"/>
</svg>